<mxfile host="Electron" modified="2024-02-26T19:36:38.690Z" agent="Mozilla/5.0 (Windows NT 10.0; Win64; x64) AppleWebKit/537.36 (KHTML, like Gecko) draw.io/22.1.2 Chrome/114.0.5735.289 Electron/25.9.4 Safari/537.36" etag="VSd_NF4eEySnTJsn96Bl" version="22.1.2" type="device">
  <diagram name="Страница — 1" id="86XmZv4FWtHFdLMMcdQ8">
    <mxGraphModel dx="2711" dy="2285" grid="1" gridSize="10" guides="1" tooltips="1" connect="1" arrows="1" fold="1" page="1" pageScale="1" pageWidth="827" pageHeight="1169" math="0" shadow="0">
      <root>
        <mxCell id="0" />
        <mxCell id="1" parent="0" />
        <mxCell id="Q5rB1tESBIPk-VAxrJTf-2" style="edgeStyle=orthogonalEdgeStyle;rounded=0;orthogonalLoop=1;jettySize=auto;html=1;exitX=0.5;exitY=1;exitDx=0;exitDy=0;" edge="1" parent="1" source="Q5rB1tESBIPk-VAxrJTf-1">
          <mxGeometry relative="1" as="geometry">
            <mxPoint x="320" y="180" as="targetPoint" />
          </mxGeometry>
        </mxCell>
        <mxCell id="Q5rB1tESBIPk-VAxrJTf-1" value="начало" style="ellipse;whiteSpace=wrap;html=1;fontFamily=Times New Roman;fontSize=24;" vertex="1" parent="1">
          <mxGeometry x="260" y="40" width="120" height="80" as="geometry" />
        </mxCell>
        <mxCell id="Q5rB1tESBIPk-VAxrJTf-5" style="edgeStyle=orthogonalEdgeStyle;rounded=0;orthogonalLoop=1;jettySize=auto;html=1;exitX=0.5;exitY=1;exitDx=0;exitDy=0;fontFamily=Times New Roman;fontSize=24;fontColor=default;" edge="1" parent="1" source="Q5rB1tESBIPk-VAxrJTf-4">
          <mxGeometry relative="1" as="geometry">
            <mxPoint x="320" y="320" as="targetPoint" />
          </mxGeometry>
        </mxCell>
        <mxCell id="Q5rB1tESBIPk-VAxrJTf-4" value="using namespace std;" style="shape=parallelogram;perimeter=parallelogramPerimeter;whiteSpace=wrap;html=1;fixedSize=1;strokeColor=default;align=center;verticalAlign=middle;fontFamily=Times New Roman;fontSize=24;fontColor=default;fillColor=default;" vertex="1" parent="1">
          <mxGeometry x="205" y="180" width="230" height="60" as="geometry" />
        </mxCell>
        <mxCell id="Q5rB1tESBIPk-VAxrJTf-14" style="edgeStyle=orthogonalEdgeStyle;rounded=0;orthogonalLoop=1;jettySize=auto;html=1;exitX=0.5;exitY=1;exitDx=0;exitDy=0;fontFamily=Times New Roman;fontSize=24;fontColor=default;" edge="1" parent="1" source="Q5rB1tESBIPk-VAxrJTf-6">
          <mxGeometry relative="1" as="geometry">
            <mxPoint x="320" y="480" as="targetPoint" />
          </mxGeometry>
        </mxCell>
        <mxCell id="Q5rB1tESBIPk-VAxrJTf-6" value="int main(){" style="ellipse;whiteSpace=wrap;html=1;fontFamily=Times New Roman;fontSize=24;" vertex="1" parent="1">
          <mxGeometry x="260" y="320" width="120" height="80" as="geometry" />
        </mxCell>
        <mxCell id="Q5rB1tESBIPk-VAxrJTf-8" value="" style="endArrow=none;html=1;rounded=0;fontFamily=Times New Roman;fontSize=24;fontColor=default;" edge="1" parent="1">
          <mxGeometry width="50" height="50" relative="1" as="geometry">
            <mxPoint x="320" y="280" as="sourcePoint" />
            <mxPoint x="520" y="280" as="targetPoint" />
          </mxGeometry>
        </mxCell>
        <mxCell id="Q5rB1tESBIPk-VAxrJTf-9" value="" style="endArrow=none;html=1;rounded=0;fontFamily=Times New Roman;fontSize=24;fontColor=default;" edge="1" parent="1">
          <mxGeometry width="50" height="50" relative="1" as="geometry">
            <mxPoint x="520" y="360" as="sourcePoint" />
            <mxPoint x="520" y="200" as="targetPoint" />
          </mxGeometry>
        </mxCell>
        <mxCell id="Q5rB1tESBIPk-VAxrJTf-10" value="" style="endArrow=none;html=1;rounded=0;fontFamily=Times New Roman;fontSize=24;fontColor=default;" edge="1" parent="1">
          <mxGeometry width="50" height="50" relative="1" as="geometry">
            <mxPoint x="520" y="200" as="sourcePoint" />
            <mxPoint x="560" y="200" as="targetPoint" />
          </mxGeometry>
        </mxCell>
        <mxCell id="Q5rB1tESBIPk-VAxrJTf-11" value="" style="endArrow=none;html=1;rounded=0;fontFamily=Times New Roman;fontSize=24;fontColor=default;" edge="1" parent="1">
          <mxGeometry width="50" height="50" relative="1" as="geometry">
            <mxPoint x="520" y="359.5" as="sourcePoint" />
            <mxPoint x="560" y="359.5" as="targetPoint" />
          </mxGeometry>
        </mxCell>
        <mxCell id="Q5rB1tESBIPk-VAxrJTf-12" value="#include &amp;lt;cmath&amp;gt;" style="text;html=1;align=left;verticalAlign=middle;resizable=0;points=[];autosize=1;strokeColor=none;fillColor=none;fontSize=24;fontFamily=Times New Roman;fontColor=default;" vertex="1" parent="1">
          <mxGeometry x="530" y="240" width="200" height="40" as="geometry" />
        </mxCell>
        <mxCell id="Q5rB1tESBIPk-VAxrJTf-13" value="#include &amp;lt;iostream&amp;gt;" style="text;html=1;align=left;verticalAlign=middle;resizable=0;points=[];autosize=1;strokeColor=none;fillColor=none;fontSize=24;fontFamily=Times New Roman;fontColor=default;" vertex="1" parent="1">
          <mxGeometry x="530" y="280" width="220" height="40" as="geometry" />
        </mxCell>
        <mxCell id="Q5rB1tESBIPk-VAxrJTf-16" value="double f(int n, double x){" style="text;html=1;align=center;verticalAlign=middle;resizable=0;points=[];autosize=1;strokeColor=none;fillColor=none;fontSize=24;fontFamily=Times New Roman;fontColor=default;" vertex="1" parent="1">
          <mxGeometry x="185" y="-507" width="270" height="40" as="geometry" />
        </mxCell>
        <mxCell id="Q5rB1tESBIPk-VAxrJTf-17" value="" style="endArrow=classic;html=1;rounded=0;fontFamily=Times New Roman;fontSize=24;fontColor=default;entryX=0.5;entryY=0;entryDx=0;entryDy=0;" edge="1" parent="1" target="Q5rB1tESBIPk-VAxrJTf-18">
          <mxGeometry width="50" height="50" relative="1" as="geometry">
            <mxPoint x="320" y="-460" as="sourcePoint" />
            <mxPoint x="319" y="-400" as="targetPoint" />
          </mxGeometry>
        </mxCell>
        <mxCell id="Q5rB1tESBIPk-VAxrJTf-26" style="edgeStyle=orthogonalEdgeStyle;rounded=0;orthogonalLoop=1;jettySize=auto;html=1;exitX=0;exitY=0.5;exitDx=0;exitDy=0;entryX=0.5;entryY=0;entryDx=0;entryDy=0;fontFamily=Times New Roman;fontSize=24;fontColor=default;" edge="1" parent="1" source="Q5rB1tESBIPk-VAxrJTf-18" target="Q5rB1tESBIPk-VAxrJTf-24">
          <mxGeometry relative="1" as="geometry" />
        </mxCell>
        <mxCell id="Q5rB1tESBIPk-VAxrJTf-27" style="edgeStyle=orthogonalEdgeStyle;rounded=0;orthogonalLoop=1;jettySize=auto;html=1;exitX=1;exitY=0.5;exitDx=0;exitDy=0;entryX=0.5;entryY=0;entryDx=0;entryDy=0;fontFamily=Times New Roman;fontSize=24;fontColor=default;" edge="1" parent="1" source="Q5rB1tESBIPk-VAxrJTf-18" target="Q5rB1tESBIPk-VAxrJTf-25">
          <mxGeometry relative="1" as="geometry" />
        </mxCell>
        <mxCell id="Q5rB1tESBIPk-VAxrJTf-18" value="if (n == 1){" style="rhombus;whiteSpace=wrap;html=1;strokeColor=default;align=center;verticalAlign=middle;fontFamily=Times New Roman;fontSize=24;fontColor=default;fillColor=default;" vertex="1" parent="1">
          <mxGeometry x="240" y="-400" width="160" height="130" as="geometry" />
        </mxCell>
        <mxCell id="Q5rB1tESBIPk-VAxrJTf-21" value="True" style="text;html=1;align=center;verticalAlign=middle;resizable=0;points=[];autosize=1;strokeColor=none;fillColor=none;fontSize=24;fontFamily=Times New Roman;fontColor=default;" vertex="1" parent="1">
          <mxGeometry x="60" y="-380" width="70" height="40" as="geometry" />
        </mxCell>
        <mxCell id="Q5rB1tESBIPk-VAxrJTf-23" value="False" style="text;html=1;align=center;verticalAlign=middle;resizable=0;points=[];autosize=1;strokeColor=none;fillColor=none;fontSize=24;fontFamily=Times New Roman;fontColor=default;" vertex="1" parent="1">
          <mxGeometry x="520" y="-380" width="70" height="40" as="geometry" />
        </mxCell>
        <mxCell id="Q5rB1tESBIPk-VAxrJTf-28" style="edgeStyle=orthogonalEdgeStyle;rounded=0;orthogonalLoop=1;jettySize=auto;html=1;exitX=0.5;exitY=1;exitDx=0;exitDy=0;entryX=0.5;entryY=1;entryDx=0;entryDy=0;fontFamily=Times New Roman;fontSize=24;fontColor=default;endArrow=none;endFill=0;" edge="1" parent="1" source="Q5rB1tESBIPk-VAxrJTf-24" target="Q5rB1tESBIPk-VAxrJTf-25">
          <mxGeometry relative="1" as="geometry">
            <Array as="points">
              <mxPoint x="-40" y="-130" />
              <mxPoint x="735" y="-130" />
            </Array>
          </mxGeometry>
        </mxCell>
        <mxCell id="Q5rB1tESBIPk-VAxrJTf-24" value="return -pow(x + 1, 2);" style="rounded=0;whiteSpace=wrap;html=1;strokeColor=default;align=center;verticalAlign=middle;fontFamily=Times New Roman;fontSize=24;fontColor=default;fillColor=default;" vertex="1" parent="1">
          <mxGeometry x="-160" y="-240" width="240" height="60" as="geometry" />
        </mxCell>
        <mxCell id="Q5rB1tESBIPk-VAxrJTf-25" value="return pow(-1, n) * pow(x + 1, 2* n) / n + f (n-1, x);" style="rounded=0;whiteSpace=wrap;html=1;strokeColor=default;align=center;verticalAlign=middle;fontFamily=Times New Roman;fontSize=24;fontColor=default;fillColor=default;" vertex="1" parent="1">
          <mxGeometry x="470" y="-240" width="530" height="60" as="geometry" />
        </mxCell>
        <mxCell id="Q5rB1tESBIPk-VAxrJTf-29" value="" style="endArrow=classic;html=1;rounded=0;fontFamily=Times New Roman;fontSize=24;fontColor=default;" edge="1" parent="1">
          <mxGeometry width="50" height="50" relative="1" as="geometry">
            <mxPoint x="320" y="-130" as="sourcePoint" />
            <mxPoint x="320" y="-80" as="targetPoint" />
          </mxGeometry>
        </mxCell>
        <mxCell id="Q5rB1tESBIPk-VAxrJTf-30" value="return 0;" style="rounded=0;whiteSpace=wrap;html=1;strokeColor=default;align=center;verticalAlign=middle;fontFamily=Times New Roman;fontSize=24;fontColor=default;fillColor=default;" vertex="1" parent="1">
          <mxGeometry x="250" y="-80" width="140" height="60" as="geometry" />
        </mxCell>
        <mxCell id="Q5rB1tESBIPk-VAxrJTf-31" value="}" style="text;html=1;align=center;verticalAlign=middle;resizable=0;points=[];autosize=1;strokeColor=none;fillColor=none;fontSize=24;fontFamily=Times New Roman;fontColor=default;" vertex="1" parent="1">
          <mxGeometry x="300" y="-170" width="40" height="40" as="geometry" />
        </mxCell>
        <mxCell id="Q5rB1tESBIPk-VAxrJTf-32" value="}" style="text;html=1;align=center;verticalAlign=middle;resizable=0;points=[];autosize=1;strokeColor=none;fillColor=none;fontSize=24;fontFamily=Times New Roman;fontColor=default;" vertex="1" parent="1">
          <mxGeometry x="390" y="-70" width="40" height="40" as="geometry" />
        </mxCell>
        <mxCell id="Q5rB1tESBIPk-VAxrJTf-34" style="edgeStyle=orthogonalEdgeStyle;rounded=0;orthogonalLoop=1;jettySize=auto;html=1;exitX=0.5;exitY=1;exitDx=0;exitDy=0;fontFamily=Times New Roman;fontSize=24;fontColor=default;" edge="1" parent="1" source="Q5rB1tESBIPk-VAxrJTf-33">
          <mxGeometry relative="1" as="geometry">
            <mxPoint x="320.53846153846143" y="640" as="targetPoint" />
          </mxGeometry>
        </mxCell>
        <mxCell id="Q5rB1tESBIPk-VAxrJTf-33" value="double x = -2;&lt;br&gt;double s = 0;" style="rounded=0;whiteSpace=wrap;html=1;strokeColor=default;align=center;verticalAlign=middle;fontFamily=Times New Roman;fontSize=24;fontColor=default;fillColor=default;" vertex="1" parent="1">
          <mxGeometry x="235" y="480" width="170" height="80" as="geometry" />
        </mxCell>
        <mxCell id="Q5rB1tESBIPk-VAxrJTf-36" style="edgeStyle=orthogonalEdgeStyle;rounded=0;orthogonalLoop=1;jettySize=auto;html=1;exitX=0.5;exitY=1;exitDx=0;exitDy=0;fontFamily=Times New Roman;fontSize=24;fontColor=default;" edge="1" parent="1" source="Q5rB1tESBIPk-VAxrJTf-35">
          <mxGeometry relative="1" as="geometry">
            <mxPoint x="320.53846153846143" y="800" as="targetPoint" />
          </mxGeometry>
        </mxCell>
        <mxCell id="Q5rB1tESBIPk-VAxrJTf-40" style="edgeStyle=orthogonalEdgeStyle;rounded=0;orthogonalLoop=1;jettySize=auto;html=1;exitX=1;exitY=0.5;exitDx=0;exitDy=0;fontFamily=Times New Roman;fontSize=24;fontColor=default;" edge="1" parent="1" source="Q5rB1tESBIPk-VAxrJTf-35">
          <mxGeometry relative="1" as="geometry">
            <mxPoint x="800" y="760" as="targetPoint" />
          </mxGeometry>
        </mxCell>
        <mxCell id="Q5rB1tESBIPk-VAxrJTf-35" value="for (int i = 1; i &amp;lt; 40; i ++){" style="shape=hexagon;perimeter=hexagonPerimeter2;whiteSpace=wrap;html=1;fixedSize=1;strokeColor=default;align=center;verticalAlign=middle;fontFamily=Times New Roman;fontSize=24;fontColor=default;fillColor=default;" vertex="1" parent="1">
          <mxGeometry x="170" y="640" width="300" height="80" as="geometry" />
        </mxCell>
        <mxCell id="Q5rB1tESBIPk-VAxrJTf-37" value="True" style="text;html=1;align=center;verticalAlign=middle;resizable=0;points=[];autosize=1;strokeColor=none;fillColor=none;fontSize=24;fontFamily=Times New Roman;fontColor=default;" vertex="1" parent="1">
          <mxGeometry x="320" y="740" width="70" height="40" as="geometry" />
        </mxCell>
        <mxCell id="Q5rB1tESBIPk-VAxrJTf-39" style="edgeStyle=orthogonalEdgeStyle;rounded=0;orthogonalLoop=1;jettySize=auto;html=1;exitX=0.5;exitY=1;exitDx=0;exitDy=0;entryX=0;entryY=0.5;entryDx=0;entryDy=0;fontFamily=Times New Roman;fontSize=24;fontColor=default;" edge="1" parent="1" source="Q5rB1tESBIPk-VAxrJTf-38" target="Q5rB1tESBIPk-VAxrJTf-35">
          <mxGeometry relative="1" as="geometry">
            <Array as="points">
              <mxPoint x="320" y="960" />
              <mxPoint x="40" y="960" />
              <mxPoint x="40" y="680" />
            </Array>
          </mxGeometry>
        </mxCell>
        <mxCell id="Q5rB1tESBIPk-VAxrJTf-38" value="s = s + pow(-1, n) * pow (x + 1, 2 *&amp;nbsp; i) / i;&amp;nbsp;&amp;nbsp;" style="whiteSpace=wrap;html=1;strokeColor=default;align=center;verticalAlign=middle;fontFamily=Times New Roman;fontSize=24;fontColor=default;fillColor=default;" vertex="1" parent="1">
          <mxGeometry x="95" y="800" width="450" height="60" as="geometry" />
        </mxCell>
        <mxCell id="Q5rB1tESBIPk-VAxrJTf-42" style="edgeStyle=orthogonalEdgeStyle;rounded=0;orthogonalLoop=1;jettySize=auto;html=1;exitX=0.5;exitY=1;exitDx=0;exitDy=0;fontFamily=Times New Roman;fontSize=24;fontColor=default;" edge="1" parent="1" source="Q5rB1tESBIPk-VAxrJTf-41">
          <mxGeometry relative="1" as="geometry">
            <mxPoint x="800.5" y="919.9999999999995" as="targetPoint" />
          </mxGeometry>
        </mxCell>
        <mxCell id="Q5rB1tESBIPk-VAxrJTf-41" value="cout &amp;lt;&amp;lt; s &amp;lt;&amp;lt; endl;&lt;br&gt;cout &amp;lt;&amp;lt; f(40, -2);" style="shape=parallelogram;perimeter=parallelogramPerimeter;whiteSpace=wrap;html=1;fixedSize=1;strokeColor=default;align=center;verticalAlign=middle;fontFamily=Times New Roman;fontSize=24;fontColor=default;fillColor=default;" vertex="1" parent="1">
          <mxGeometry x="670" y="760" width="260" height="100" as="geometry" />
        </mxCell>
        <mxCell id="Q5rB1tESBIPk-VAxrJTf-43" value="return 0;" style="whiteSpace=wrap;html=1;strokeColor=default;align=center;verticalAlign=middle;fontFamily=Times New Roman;fontSize=24;fontColor=default;fillColor=default;" vertex="1" parent="1">
          <mxGeometry x="740" y="920" width="120" height="60" as="geometry" />
        </mxCell>
        <mxCell id="Q5rB1tESBIPk-VAxrJTf-44" value="False" style="text;html=1;align=center;verticalAlign=middle;resizable=0;points=[];autosize=1;strokeColor=none;fillColor=none;fontSize=24;fontFamily=Times New Roman;fontColor=default;" vertex="1" parent="1">
          <mxGeometry x="600" y="640" width="70" height="40" as="geometry" />
        </mxCell>
      </root>
    </mxGraphModel>
  </diagram>
</mxfile>
